<mxfile host="app.diagrams.net" modified="2020-10-22T08:06:15.521Z" agent="5.0 (Windows NT 10.0; WOW64) AppleWebKit/537.36 (KHTML, like Gecko) Chrome/72.0.3626.121 Safari/537.36" etag="zLdQq-8TpfL2GbdfGpmN" version="13.8.1" type="github">
  <diagram id="Yn6QJ3NRxgx2bD1-u2WM" name="第 1 页">
    <mxGraphModel dx="2249" dy="762" grid="1" gridSize="10" guides="1" tooltips="1" connect="1" arrows="1" fold="1" page="1" pageScale="1" pageWidth="827" pageHeight="1169" math="0" shadow="0">
      <root>
        <mxCell id="0" />
        <mxCell id="1" parent="0" />
        <mxCell id="0WxYUuPuHPvPGawuybOv-14" style="edgeStyle=orthogonalEdgeStyle;rounded=0;orthogonalLoop=1;jettySize=auto;html=1;exitX=1;exitY=0.5;exitDx=0;exitDy=0;fontSize=12;" parent="1" source="0WxYUuPuHPvPGawuybOv-1" target="0WxYUuPuHPvPGawuybOv-2" edge="1">
          <mxGeometry relative="1" as="geometry" />
        </mxCell>
        <mxCell id="0WxYUuPuHPvPGawuybOv-1" value="上传客户端" style="rounded=0;whiteSpace=wrap;html=1;fontSize=15;" parent="1" vertex="1">
          <mxGeometry x="-540" y="344.19354838709677" width="125.75757575757575" height="65.80645161290322" as="geometry" />
        </mxCell>
        <mxCell id="0WxYUuPuHPvPGawuybOv-28" style="edgeStyle=orthogonalEdgeStyle;rounded=0;orthogonalLoop=1;jettySize=auto;html=1;exitX=0.5;exitY=0;exitDx=0;exitDy=0;entryX=0.75;entryY=1;entryDx=0;entryDy=0;fontSize=12;dashed=1;" parent="1" source="0WxYUuPuHPvPGawuybOv-3" target="0WxYUuPuHPvPGawuybOv-24" edge="1">
          <mxGeometry relative="1" as="geometry" />
        </mxCell>
        <mxCell id="0WxYUuPuHPvPGawuybOv-3" value="迁移服务" style="rounded=0;whiteSpace=wrap;html=1;fontSize=15;" parent="1" vertex="1">
          <mxGeometry x="-60" y="344.19" width="120" height="65.81" as="geometry" />
        </mxCell>
        <mxCell id="0WxYUuPuHPvPGawuybOv-26" style="edgeStyle=orthogonalEdgeStyle;rounded=0;orthogonalLoop=1;jettySize=auto;html=1;exitX=0.5;exitY=0;exitDx=0;exitDy=0;entryX=0.25;entryY=1;entryDx=0;entryDy=0;fontSize=12;dashed=1;" parent="1" source="0WxYUuPuHPvPGawuybOv-2" target="0WxYUuPuHPvPGawuybOv-24" edge="1">
          <mxGeometry relative="1" as="geometry" />
        </mxCell>
        <mxCell id="0WxYUuPuHPvPGawuybOv-2" value="上传服务端" style="rounded=0;whiteSpace=wrap;html=1;fontSize=15;" parent="1" vertex="1">
          <mxGeometry x="-364.0469696969697" y="344.19354838709677" width="125.75757575757575" height="65.80645161290322" as="geometry" />
        </mxCell>
        <mxCell id="0WxYUuPuHPvPGawuybOv-12" value="" style="group" parent="1" vertex="1" connectable="0">
          <mxGeometry x="-364.05" y="70" width="424.05" height="340" as="geometry" />
        </mxCell>
        <mxCell id="0WxYUuPuHPvPGawuybOv-4" value="datapipelineServer" style="rounded=0;whiteSpace=wrap;html=1;fontSize=12;fillColor=#dae8fc;strokeColor=#6c8ebf;" parent="0WxYUuPuHPvPGawuybOv-12" vertex="1">
          <mxGeometry y="98.71" width="124.04288316456785" height="121.29" as="geometry" />
        </mxCell>
        <mxCell id="0WxYUuPuHPvPGawuybOv-5" value="数据任务流转平台&lt;br&gt;dataPipelineFrontend" style="rounded=0;whiteSpace=wrap;html=1;fontSize=12;fillColor=#f5f5f5;strokeColor=#666666;fontColor=#333333;" parent="0WxYUuPuHPvPGawuybOv-12" vertex="1">
          <mxGeometry x="0.0035584177160691657" width="124.04644158228395" height="65.80645161290322" as="geometry" />
        </mxCell>
        <mxCell id="0WxYUuPuHPvPGawuybOv-6" style="edgeStyle=orthogonalEdgeStyle;rounded=0;orthogonalLoop=1;jettySize=auto;html=1;exitX=0.5;exitY=0;exitDx=0;exitDy=0;fontSize=15;" parent="0WxYUuPuHPvPGawuybOv-12" source="0WxYUuPuHPvPGawuybOv-4" target="0WxYUuPuHPvPGawuybOv-5" edge="1">
          <mxGeometry relative="1" as="geometry" />
        </mxCell>
        <mxCell id="0WxYUuPuHPvPGawuybOv-8" value="定时任务" style="rounded=0;whiteSpace=wrap;html=1;fontSize=12;" parent="0WxYUuPuHPvPGawuybOv-12" vertex="1">
          <mxGeometry x="30.729999999999997" y="187.1" width="62.59" height="32.9" as="geometry" />
        </mxCell>
        <mxCell id="0WxYUuPuHPvPGawuybOv-30" value="上传客户端&lt;br&gt;(master分支）" style="rounded=0;whiteSpace=wrap;html=1;fontSize=15;fillColor=#dae8fc;strokeColor=#6c8ebf;" parent="0WxYUuPuHPvPGawuybOv-12" vertex="1">
          <mxGeometry x="-175.95" y="274.19354838709677" width="125.75757575757575" height="65.80645161290322" as="geometry" />
        </mxCell>
        <mxCell id="0WxYUuPuHPvPGawuybOv-31" value="上传服务端" style="rounded=0;whiteSpace=wrap;html=1;fontSize=15;fillColor=#dae8fc;strokeColor=#6c8ebf;" parent="0WxYUuPuHPvPGawuybOv-12" vertex="1">
          <mxGeometry x="0.0030303030303002743" y="274.19354838709677" width="125.75757575757575" height="65.80645161290322" as="geometry" />
        </mxCell>
        <mxCell id="0WxYUuPuHPvPGawuybOv-32" value="迁移服务" style="rounded=0;whiteSpace=wrap;html=1;fontSize=15;fillColor=#dae8fc;strokeColor=#6c8ebf;" parent="0WxYUuPuHPvPGawuybOv-12" vertex="1">
          <mxGeometry x="304.05" y="274.19" width="120" height="65.81" as="geometry" />
        </mxCell>
        <mxCell id="0WxYUuPuHPvPGawuybOv-33" value="上传客户端&lt;br&gt;(master分支）" style="rounded=0;whiteSpace=wrap;html=1;fontSize=15;fillColor=#dae8fc;strokeColor=#6c8ebf;" parent="0WxYUuPuHPvPGawuybOv-12" vertex="1">
          <mxGeometry x="-175.95" y="274.19354838709677" width="125.75757575757575" height="65.80645161290322" as="geometry" />
        </mxCell>
        <mxCell id="0WxYUuPuHPvPGawuybOv-27" style="edgeStyle=orthogonalEdgeStyle;rounded=0;orthogonalLoop=1;jettySize=auto;html=1;exitX=0.5;exitY=0;exitDx=0;exitDy=0;fontSize=12;dashed=1;" parent="1" source="0WxYUuPuHPvPGawuybOv-22" target="0WxYUuPuHPvPGawuybOv-24" edge="1">
          <mxGeometry relative="1" as="geometry" />
        </mxCell>
        <mxCell id="0WxYUuPuHPvPGawuybOv-22" value="脱敏服务&lt;br&gt;（marco）" style="rounded=0;whiteSpace=wrap;html=1;fontSize=15;fillColor=#f5f5f5;strokeColor=#666666;fontColor=#333333;" parent="1" vertex="1">
          <mxGeometry x="-212.8769696969697" y="344.19354838709677" width="125.75757575757575" height="65.80645161290322" as="geometry" />
        </mxCell>
        <mxCell id="0WxYUuPuHPvPGawuybOv-25" style="edgeStyle=orthogonalEdgeStyle;rounded=0;orthogonalLoop=1;jettySize=auto;html=1;exitX=0;exitY=0.5;exitDx=0;exitDy=0;entryX=1;entryY=0.5;entryDx=0;entryDy=0;fontSize=12;" parent="1" source="0WxYUuPuHPvPGawuybOv-24" target="0WxYUuPuHPvPGawuybOv-8" edge="1">
          <mxGeometry relative="1" as="geometry" />
        </mxCell>
        <mxCell id="0WxYUuPuHPvPGawuybOv-24" value="任务step表" style="rounded=0;whiteSpace=wrap;html=1;fontSize=12;" parent="1" vertex="1">
          <mxGeometry x="-181" y="257.1" width="62.59" height="32.9" as="geometry" />
        </mxCell>
        <mxCell id="0WxYUuPuHPvPGawuybOv-17" style="edgeStyle=orthogonalEdgeStyle;rounded=0;orthogonalLoop=1;jettySize=auto;html=1;exitX=1;exitY=0.5;exitDx=0;exitDy=0;entryX=0.25;entryY=1;entryDx=0;entryDy=0;fontSize=12;" parent="1" source="0WxYUuPuHPvPGawuybOv-13" target="0WxYUuPuHPvPGawuybOv-3" edge="1">
          <mxGeometry relative="1" as="geometry" />
        </mxCell>
        <mxCell id="0WxYUuPuHPvPGawuybOv-13" value="ceph" style="text;html=1;strokeColor=none;fillColor=none;align=center;verticalAlign=middle;whiteSpace=wrap;rounded=0;fontSize=12;" parent="1" vertex="1">
          <mxGeometry x="-170" y="470" width="40" height="20" as="geometry" />
        </mxCell>
        <mxCell id="0WxYUuPuHPvPGawuybOv-16" style="edgeStyle=orthogonalEdgeStyle;rounded=0;orthogonalLoop=1;jettySize=auto;html=1;exitX=0.5;exitY=1;exitDx=0;exitDy=0;entryX=0;entryY=0.5;entryDx=0;entryDy=0;fontSize=12;" parent="1" source="0WxYUuPuHPvPGawuybOv-2" target="0WxYUuPuHPvPGawuybOv-13" edge="1">
          <mxGeometry relative="1" as="geometry" />
        </mxCell>
        <mxCell id="0WxYUuPuHPvPGawuybOv-18" value="cos" style="text;html=1;strokeColor=none;fillColor=none;align=center;verticalAlign=middle;whiteSpace=wrap;rounded=0;fontSize=12;" parent="1" vertex="1">
          <mxGeometry x="90" y="470" width="40" height="20" as="geometry" />
        </mxCell>
        <mxCell id="0WxYUuPuHPvPGawuybOv-20" style="edgeStyle=orthogonalEdgeStyle;rounded=0;orthogonalLoop=1;jettySize=auto;html=1;exitX=0.75;exitY=1;exitDx=0;exitDy=0;entryX=0;entryY=0.5;entryDx=0;entryDy=0;fontSize=12;" parent="1" source="0WxYUuPuHPvPGawuybOv-3" target="0WxYUuPuHPvPGawuybOv-18" edge="1">
          <mxGeometry relative="1" as="geometry" />
        </mxCell>
        <mxCell id="0WxYUuPuHPvPGawuybOv-23" style="edgeStyle=orthogonalEdgeStyle;rounded=0;orthogonalLoop=1;jettySize=auto;html=1;exitX=0.5;exitY=1;exitDx=0;exitDy=0;entryX=0.5;entryY=0;entryDx=0;entryDy=0;fontSize=12;" parent="1" source="0WxYUuPuHPvPGawuybOv-22" target="0WxYUuPuHPvPGawuybOv-13" edge="1">
          <mxGeometry relative="1" as="geometry" />
        </mxCell>
        <mxCell id="0WxYUuPuHPvPGawuybOv-34" style="edgeStyle=orthogonalEdgeStyle;rounded=0;orthogonalLoop=1;jettySize=auto;html=1;exitX=1;exitY=0.5;exitDx=0;exitDy=0;fontSize=12;" parent="1" edge="1">
          <mxGeometry relative="1" as="geometry">
            <mxPoint x="-414.24242424242425" y="584.9067741935485" as="sourcePoint" />
            <mxPoint x="-364.04696969696965" y="584.9099999999999" as="targetPoint" />
          </mxGeometry>
        </mxCell>
        <mxCell id="0WxYUuPuHPvPGawuybOv-35" value="Pacs.WebUploadServer&lt;br&gt;(B总）" style="rounded=0;whiteSpace=wrap;html=1;fontSize=15;fillColor=#f5f5f5;strokeColor=#666666;fontColor=#333333;" parent="1" vertex="1">
          <mxGeometry x="-364.05" y="552" width="184.05" height="65.81" as="geometry" />
        </mxCell>
        <mxCell id="0WxYUuPuHPvPGawuybOv-36" value="上传客户端&lt;br&gt;(yunjiaopian分支 + keyanpingtai分支）" style="rounded=0;whiteSpace=wrap;html=1;fontSize=15;fillColor=#dae8fc;strokeColor=#6c8ebf;" parent="1" vertex="1">
          <mxGeometry x="-540" y="552.0035483870968" width="125.75757575757575" height="65.80645161290322" as="geometry" />
        </mxCell>
        <mxCell id="0WxYUuPuHPvPGawuybOv-37" value="老的ceph上传客户端" style="text;html=1;strokeColor=none;fillColor=none;align=center;verticalAlign=middle;whiteSpace=wrap;rounded=0;fontSize=12;" parent="1" vertex="1">
          <mxGeometry x="-540" y="420" width="130" height="20" as="geometry" />
        </mxCell>
        <mxCell id="0WxYUuPuHPvPGawuybOv-38" value="带UI的简单的版本（云胶片+科研平台）" style="text;html=1;strokeColor=none;fillColor=none;align=center;verticalAlign=middle;whiteSpace=wrap;rounded=0;fontSize=12;" parent="1" vertex="1">
          <mxGeometry x="-542.12" y="630" width="130" height="20" as="geometry" />
        </mxCell>
        <mxCell id="0WxYUuPuHPvPGawuybOv-48" style="edgeStyle=orthogonalEdgeStyle;rounded=0;orthogonalLoop=1;jettySize=auto;html=1;exitX=1;exitY=0.5;exitDx=0;exitDy=0;fontSize=12;" parent="1" source="0WxYUuPuHPvPGawuybOv-39" target="0WxYUuPuHPvPGawuybOv-45" edge="1">
          <mxGeometry relative="1" as="geometry" />
        </mxCell>
        <mxCell id="0WxYUuPuHPvPGawuybOv-50" style="edgeStyle=orthogonalEdgeStyle;rounded=0;orthogonalLoop=1;jettySize=auto;html=1;exitX=1;exitY=0.5;exitDx=0;exitDy=0;entryX=0;entryY=0.5;entryDx=0;entryDy=0;fontSize=12;" parent="1" source="0WxYUuPuHPvPGawuybOv-39" target="0WxYUuPuHPvPGawuybOv-47" edge="1">
          <mxGeometry relative="1" as="geometry" />
        </mxCell>
        <mxCell id="0WxYUuPuHPvPGawuybOv-39" value="电子健康卡千手" style="rounded=0;whiteSpace=wrap;html=1;fontSize=12;fillColor=#dae8fc;strokeColor=#6c8ebf;" parent="1" vertex="1">
          <mxGeometry x="-542.12" y="860" width="120" height="60" as="geometry" />
        </mxCell>
        <mxCell id="0WxYUuPuHPvPGawuybOv-57" style="edgeStyle=orthogonalEdgeStyle;rounded=0;orthogonalLoop=1;jettySize=auto;html=1;exitX=1;exitY=0.5;exitDx=0;exitDy=0;fontSize=12;" parent="1" source="0WxYUuPuHPvPGawuybOv-40" target="0WxYUuPuHPvPGawuybOv-41" edge="1">
          <mxGeometry relative="1" as="geometry" />
        </mxCell>
        <mxCell id="0WxYUuPuHPvPGawuybOv-40" value="" style="rounded=0;whiteSpace=wrap;html=1;fontSize=12;" parent="1" vertex="1">
          <mxGeometry x="-252.12" y="740" width="360" height="330" as="geometry" />
        </mxCell>
        <mxCell id="0WxYUuPuHPvPGawuybOv-41" value="卫计委接口&lt;br&gt;172.29.12.194:9001" style="rounded=0;whiteSpace=wrap;html=1;fontSize=12;fillColor=#e1d5e7;strokeColor=#9673a6;" parent="1" vertex="1">
          <mxGeometry x="157.88" y="875" width="120" height="60" as="geometry" />
        </mxCell>
        <mxCell id="0WxYUuPuHPvPGawuybOv-42" value="千手转发服务A&lt;br&gt;172.26.140.97:8080" style="rounded=0;whiteSpace=wrap;html=1;fontSize=12;fillColor=#d5e8d4;strokeColor=#82b366;" parent="1" vertex="1">
          <mxGeometry x="-62.120000000000005" y="780" width="120" height="60" as="geometry" />
        </mxCell>
        <mxCell id="0WxYUuPuHPvPGawuybOv-43" value="千手转发服务B&lt;br&gt;172.26.140.105:8080" style="rounded=0;whiteSpace=wrap;html=1;fontSize=12;fillColor=#d5e8d4;strokeColor=#82b366;" parent="1" vertex="1">
          <mxGeometry x="-62.120000000000005" y="860" width="120" height="60" as="geometry" />
        </mxCell>
        <mxCell id="0WxYUuPuHPvPGawuybOv-44" value="千手转发服务&lt;br&gt;（测试）&lt;br&gt;172.26.140.84:8080" style="rounded=0;whiteSpace=wrap;html=1;fontSize=12;fillColor=#d5e8d4;strokeColor=#82b366;" parent="1" vertex="1">
          <mxGeometry x="-62.120000000000005" y="950" width="120" height="60" as="geometry" />
        </mxCell>
        <mxCell id="0WxYUuPuHPvPGawuybOv-52" style="edgeStyle=orthogonalEdgeStyle;rounded=0;orthogonalLoop=1;jettySize=auto;html=1;exitX=1;exitY=0.5;exitDx=0;exitDy=0;fontSize=12;" parent="1" source="0WxYUuPuHPvPGawuybOv-45" target="0WxYUuPuHPvPGawuybOv-51" edge="1">
          <mxGeometry relative="1" as="geometry" />
        </mxCell>
        <mxCell id="0WxYUuPuHPvPGawuybOv-45" value="175.6.47.221" style="text;html=1;strokeColor=none;fillColor=none;align=center;verticalAlign=middle;whiteSpace=wrap;rounded=0;fontSize=12;" parent="1" vertex="1">
          <mxGeometry x="-351.24" y="880" width="84" height="20" as="geometry" />
        </mxCell>
        <mxCell id="0WxYUuPuHPvPGawuybOv-46" style="edgeStyle=orthogonalEdgeStyle;rounded=0;orthogonalLoop=1;jettySize=auto;html=1;exitX=0.5;exitY=1;exitDx=0;exitDy=0;dashed=1;fontSize=12;" parent="1" source="0WxYUuPuHPvPGawuybOv-45" target="0WxYUuPuHPvPGawuybOv-45" edge="1">
          <mxGeometry relative="1" as="geometry" />
        </mxCell>
        <mxCell id="0WxYUuPuHPvPGawuybOv-55" style="edgeStyle=orthogonalEdgeStyle;rounded=0;orthogonalLoop=1;jettySize=auto;html=1;exitX=1;exitY=0.5;exitDx=0;exitDy=0;fontSize=12;" parent="1" source="0WxYUuPuHPvPGawuybOv-47" target="0WxYUuPuHPvPGawuybOv-44" edge="1">
          <mxGeometry relative="1" as="geometry" />
        </mxCell>
        <mxCell id="0WxYUuPuHPvPGawuybOv-47" value="175.6.47.248" style="text;html=1;strokeColor=none;fillColor=none;align=center;verticalAlign=middle;whiteSpace=wrap;rounded=0;fontSize=12;fontColor=#007FFF;" parent="1" vertex="1">
          <mxGeometry x="-349.12" y="970" width="84" height="20" as="geometry" />
        </mxCell>
        <mxCell id="0WxYUuPuHPvPGawuybOv-53" style="edgeStyle=orthogonalEdgeStyle;rounded=0;orthogonalLoop=1;jettySize=auto;html=1;exitX=1;exitY=0.5;exitDx=0;exitDy=0;entryX=0;entryY=0.5;entryDx=0;entryDy=0;fontSize=12;" parent="1" source="0WxYUuPuHPvPGawuybOv-51" target="0WxYUuPuHPvPGawuybOv-42" edge="1">
          <mxGeometry relative="1" as="geometry" />
        </mxCell>
        <mxCell id="0WxYUuPuHPvPGawuybOv-54" style="edgeStyle=orthogonalEdgeStyle;rounded=0;orthogonalLoop=1;jettySize=auto;html=1;exitX=1;exitY=0.5;exitDx=0;exitDy=0;fontSize=12;" parent="1" source="0WxYUuPuHPvPGawuybOv-51" target="0WxYUuPuHPvPGawuybOv-43" edge="1">
          <mxGeometry relative="1" as="geometry" />
        </mxCell>
        <mxCell id="0WxYUuPuHPvPGawuybOv-51" value="ELB:172.26.140.76" style="text;html=1;strokeColor=none;fillColor=none;align=center;verticalAlign=middle;whiteSpace=wrap;rounded=0;fontSize=12;" parent="1" vertex="1">
          <mxGeometry x="-222.12" y="880" width="114.05" height="20" as="geometry" />
        </mxCell>
        <mxCell id="0WxYUuPuHPvPGawuybOv-56" value="政务云内网环境" style="text;html=1;strokeColor=none;fillColor=none;align=center;verticalAlign=middle;whiteSpace=wrap;rounded=0;fontSize=12;" parent="1" vertex="1">
          <mxGeometry x="-122.12" y="740" width="110" height="20" as="geometry" />
        </mxCell>
        <mxCell id="0WxYUuPuHPvPGawuybOv-58" value="175.6.47.221" style="text;html=1;strokeColor=none;fillColor=none;align=center;verticalAlign=middle;whiteSpace=wrap;rounded=0;fontSize=12;fontColor=#007FFF;" parent="1" vertex="1">
          <mxGeometry x="-351.24" y="880" width="84" height="20" as="geometry" />
        </mxCell>
        <mxCell id="0WxYUuPuHPvPGawuybOv-69" style="edgeStyle=orthogonalEdgeStyle;rounded=0;orthogonalLoop=1;jettySize=auto;html=1;exitX=1;exitY=0.25;exitDx=0;exitDy=0;entryX=0;entryY=0.25;entryDx=0;entryDy=0;fontSize=12;fontColor=#007FFF;" parent="1" source="0WxYUuPuHPvPGawuybOv-59" target="0WxYUuPuHPvPGawuybOv-60" edge="1">
          <mxGeometry relative="1" as="geometry" />
        </mxCell>
        <mxCell id="0WxYUuPuHPvPGawuybOv-59" value="&lt;font color=&quot;#000000&quot;&gt;院内子系统&lt;/font&gt;" style="rounded=0;whiteSpace=wrap;html=1;fontSize=12;fillColor=#dae8fc;strokeColor=#6c8ebf;" parent="1" vertex="1">
          <mxGeometry x="-542.12" y="1290" width="120" height="60" as="geometry" />
        </mxCell>
        <mxCell id="0WxYUuPuHPvPGawuybOv-70" style="edgeStyle=orthogonalEdgeStyle;rounded=0;orthogonalLoop=1;jettySize=auto;html=1;exitX=0;exitY=0.75;exitDx=0;exitDy=0;entryX=1;entryY=0.75;entryDx=0;entryDy=0;fontSize=12;fontColor=#007FFF;" parent="1" source="0WxYUuPuHPvPGawuybOv-60" target="0WxYUuPuHPvPGawuybOv-59" edge="1">
          <mxGeometry relative="1" as="geometry" />
        </mxCell>
        <mxCell id="0WxYUuPuHPvPGawuybOv-71" style="edgeStyle=orthogonalEdgeStyle;rounded=0;orthogonalLoop=1;jettySize=auto;html=1;exitX=1;exitY=0.5;exitDx=0;exitDy=0;fontSize=12;fontColor=#007FFF;" parent="1" source="0WxYUuPuHPvPGawuybOv-60" target="0WxYUuPuHPvPGawuybOv-61" edge="1">
          <mxGeometry relative="1" as="geometry" />
        </mxCell>
        <mxCell id="0WxYUuPuHPvPGawuybOv-60" value="&lt;font color=&quot;#000000&quot;&gt;平台网关&lt;/font&gt;" style="rounded=0;whiteSpace=wrap;html=1;fontSize=12;fillColor=#dae8fc;strokeColor=#6c8ebf;" parent="1" vertex="1">
          <mxGeometry x="-358.28999999999996" y="1290" width="120" height="60" as="geometry" />
        </mxCell>
        <mxCell id="0WxYUuPuHPvPGawuybOv-72" style="edgeStyle=orthogonalEdgeStyle;rounded=0;orthogonalLoop=1;jettySize=auto;html=1;exitX=1;exitY=0.5;exitDx=0;exitDy=0;fontSize=12;fontColor=#007FFF;" parent="1" source="0WxYUuPuHPvPGawuybOv-61" target="0WxYUuPuHPvPGawuybOv-62" edge="1">
          <mxGeometry relative="1" as="geometry" />
        </mxCell>
        <mxCell id="0WxYUuPuHPvPGawuybOv-61" value="&lt;font color=&quot;#000000&quot;&gt;索引服务&lt;/font&gt;" style="rounded=0;whiteSpace=wrap;html=1;fontSize=12;fillColor=#dae8fc;strokeColor=#6c8ebf;" parent="1" vertex="1">
          <mxGeometry x="-169.99999999999997" y="1290" width="120" height="60" as="geometry" />
        </mxCell>
        <mxCell id="0WxYUuPuHPvPGawuybOv-65" style="edgeStyle=orthogonalEdgeStyle;rounded=0;orthogonalLoop=1;jettySize=auto;html=1;exitX=0.5;exitY=0;exitDx=0;exitDy=0;fontSize=12;fontColor=#007FFF;" parent="1" source="0WxYUuPuHPvPGawuybOv-62" target="0WxYUuPuHPvPGawuybOv-64" edge="1">
          <mxGeometry relative="1" as="geometry" />
        </mxCell>
        <mxCell id="0WxYUuPuHPvPGawuybOv-66" style="edgeStyle=orthogonalEdgeStyle;rounded=0;orthogonalLoop=1;jettySize=auto;html=1;exitX=0.5;exitY=1;exitDx=0;exitDy=0;fontSize=12;fontColor=#007FFF;" parent="1" source="0WxYUuPuHPvPGawuybOv-62" target="0WxYUuPuHPvPGawuybOv-63" edge="1">
          <mxGeometry relative="1" as="geometry" />
        </mxCell>
        <mxCell id="0WxYUuPuHPvPGawuybOv-73" style="edgeStyle=orthogonalEdgeStyle;rounded=0;orthogonalLoop=1;jettySize=auto;html=1;exitX=1;exitY=0.5;exitDx=0;exitDy=0;fontSize=12;fontColor=#007FFF;" parent="1" source="0WxYUuPuHPvPGawuybOv-62" target="0WxYUuPuHPvPGawuybOv-67" edge="1">
          <mxGeometry relative="1" as="geometry" />
        </mxCell>
        <mxCell id="0WxYUuPuHPvPGawuybOv-62" value="&lt;font color=&quot;#000000&quot;&gt;Tbaas区块链服务&lt;/font&gt;" style="rounded=0;whiteSpace=wrap;html=1;fontSize=12;fillColor=#dae8fc;strokeColor=#6c8ebf;" parent="1" vertex="1">
          <mxGeometry x="20.00000000000003" y="1290" width="120" height="60" as="geometry" />
        </mxCell>
        <mxCell id="0WxYUuPuHPvPGawuybOv-63" value="&lt;font color=&quot;#000000&quot;&gt;区块交易同步服务&lt;/font&gt;" style="rounded=0;whiteSpace=wrap;html=1;fontSize=12;fillColor=#dae8fc;strokeColor=#6c8ebf;" parent="1" vertex="1">
          <mxGeometry x="20.00000000000003" y="1380" width="120" height="60" as="geometry" />
        </mxCell>
        <mxCell id="0WxYUuPuHPvPGawuybOv-64" value="&lt;font color=&quot;#000000&quot;&gt;区块链浏览器&lt;/font&gt;" style="rounded=0;whiteSpace=wrap;html=1;fontSize=12;fontColor=#333333;fillColor=#f5f5f5;strokeColor=#666666;" parent="1" vertex="1">
          <mxGeometry x="20.00000000000003" y="1190" width="120" height="60" as="geometry" />
        </mxCell>
        <mxCell id="0WxYUuPuHPvPGawuybOv-67" value="&lt;font color=&quot;#000000&quot;&gt;Tbaas&lt;/font&gt;" style="rounded=0;whiteSpace=wrap;html=1;fontSize=12;fontColor=#333333;fillColor=#f5f5f5;strokeColor=#666666;" parent="1" vertex="1">
          <mxGeometry x="220.00000000000003" y="1290" width="120" height="60" as="geometry" />
        </mxCell>
        <mxCell id="0WxYUuPuHPvPGawuybOv-76" style="edgeStyle=orthogonalEdgeStyle;rounded=0;orthogonalLoop=1;jettySize=auto;html=1;exitX=0.5;exitY=0;exitDx=0;exitDy=0;fontSize=12;fontColor=#007FFF;" parent="1" source="0WxYUuPuHPvPGawuybOv-74" target="0WxYUuPuHPvPGawuybOv-61" edge="1">
          <mxGeometry relative="1" as="geometry" />
        </mxCell>
        <mxCell id="0WxYUuPuHPvPGawuybOv-77" style="edgeStyle=orthogonalEdgeStyle;rounded=0;orthogonalLoop=1;jettySize=auto;html=1;exitX=0;exitY=0.5;exitDx=0;exitDy=0;fontSize=12;fontColor=#007FFF;" parent="1" source="0WxYUuPuHPvPGawuybOv-74" target="0WxYUuPuHPvPGawuybOv-60" edge="1">
          <mxGeometry relative="1" as="geometry" />
        </mxCell>
        <mxCell id="0WxYUuPuHPvPGawuybOv-78" style="edgeStyle=orthogonalEdgeStyle;rounded=0;orthogonalLoop=1;jettySize=auto;html=1;exitX=1;exitY=0.25;exitDx=0;exitDy=0;entryX=0;entryY=0.75;entryDx=0;entryDy=0;fontSize=12;fontColor=#007FFF;" parent="1" source="0WxYUuPuHPvPGawuybOv-74" target="0WxYUuPuHPvPGawuybOv-62" edge="1">
          <mxGeometry relative="1" as="geometry">
            <Array as="points">
              <mxPoint x="-15" y="1395" />
              <mxPoint x="-15" y="1335" />
            </Array>
          </mxGeometry>
        </mxCell>
        <mxCell id="0WxYUuPuHPvPGawuybOv-79" style="edgeStyle=orthogonalEdgeStyle;rounded=0;orthogonalLoop=1;jettySize=auto;html=1;exitX=1;exitY=0.5;exitDx=0;exitDy=0;fontSize=12;fontColor=#007FFF;" parent="1" source="0WxYUuPuHPvPGawuybOv-74" target="0WxYUuPuHPvPGawuybOv-63" edge="1">
          <mxGeometry relative="1" as="geometry" />
        </mxCell>
        <mxCell id="0WxYUuPuHPvPGawuybOv-74" value="&lt;font color=&quot;#000000&quot;&gt;配置服务&lt;/font&gt;" style="rounded=0;whiteSpace=wrap;html=1;fontSize=12;fillColor=#f5f5f5;strokeColor=#666666;fontColor=#333333;" parent="1" vertex="1">
          <mxGeometry x="-169.99999999999997" y="1380" width="120" height="60" as="geometry" />
        </mxCell>
        <mxCell id="0WxYUuPuHPvPGawuybOv-87" style="edgeStyle=orthogonalEdgeStyle;rounded=0;orthogonalLoop=1;jettySize=auto;html=1;exitX=1;exitY=0.5;exitDx=0;exitDy=0;fontSize=12;fontColor=#007FFF;" parent="1" source="0WxYUuPuHPvPGawuybOv-80" target="0WxYUuPuHPvPGawuybOv-81" edge="1">
          <mxGeometry relative="1" as="geometry" />
        </mxCell>
        <mxCell id="0WxYUuPuHPvPGawuybOv-80" value="微信卡管http服务" style="rounded=0;whiteSpace=wrap;html=1;fontSize=12;fillColor=#dae8fc;strokeColor=#6c8ebf;" parent="1" vertex="1">
          <mxGeometry x="-542.12" y="1530" width="120" height="60" as="geometry" />
        </mxCell>
        <mxCell id="0WxYUuPuHPvPGawuybOv-83" style="edgeStyle=orthogonalEdgeStyle;rounded=0;orthogonalLoop=1;jettySize=auto;html=1;exitX=1;exitY=0.5;exitDx=0;exitDy=0;fontSize=12;fontColor=#007FFF;" parent="1" source="0WxYUuPuHPvPGawuybOv-81" target="0WxYUuPuHPvPGawuybOv-82" edge="1">
          <mxGeometry relative="1" as="geometry" />
        </mxCell>
        <mxCell id="0WxYUuPuHPvPGawuybOv-86" style="edgeStyle=orthogonalEdgeStyle;rounded=0;orthogonalLoop=1;jettySize=auto;html=1;exitX=1;exitY=0.75;exitDx=0;exitDy=0;entryX=0;entryY=0.5;entryDx=0;entryDy=0;fontSize=12;fontColor=#007FFF;" parent="1" source="0WxYUuPuHPvPGawuybOv-81" target="0WxYUuPuHPvPGawuybOv-85" edge="1">
          <mxGeometry relative="1" as="geometry">
            <Array as="points">
              <mxPoint x="-206" y="1575" />
              <mxPoint x="-206" y="1650" />
            </Array>
          </mxGeometry>
        </mxCell>
        <mxCell id="0WxYUuPuHPvPGawuybOv-81" value="加密机" style="rounded=0;whiteSpace=wrap;html=1;fontSize=12;fillColor=#dae8fc;strokeColor=#6c8ebf;" parent="1" vertex="1">
          <mxGeometry x="-361.17" y="1530" width="120" height="60" as="geometry" />
        </mxCell>
        <mxCell id="0WxYUuPuHPvPGawuybOv-82" value="蛇口&lt;br&gt;10.222.3.156:8018" style="rounded=0;whiteSpace=wrap;html=1;fontSize=12;fillColor=#f5f5f5;strokeColor=#666666;fontColor=#333333;" parent="1" vertex="1">
          <mxGeometry x="-170.00000000000003" y="1530" width="120" height="60" as="geometry" />
        </mxCell>
        <mxCell id="0WxYUuPuHPvPGawuybOv-85" value="坪山&lt;br&gt;10.62.86.234:8018" style="rounded=0;whiteSpace=wrap;html=1;fontSize=12;fillColor=#f5f5f5;strokeColor=#666666;fontColor=#333333;" parent="1" vertex="1">
          <mxGeometry x="-170.00000000000003" y="1620" width="120" height="60" as="geometry" />
        </mxCell>
        <mxCell id="0WxYUuPuHPvPGawuybOv-88" value="taf" style="text;html=1;strokeColor=none;fillColor=none;align=center;verticalAlign=middle;whiteSpace=wrap;rounded=0;fontSize=12;" parent="1" vertex="1">
          <mxGeometry x="-414" y="1540" width="40" height="20" as="geometry" />
        </mxCell>
        <mxCell id="0WxYUuPuHPvPGawuybOv-89" value="正式" style="text;html=1;strokeColor=none;fillColor=none;align=center;verticalAlign=middle;whiteSpace=wrap;rounded=0;fontSize=12;" parent="1" vertex="1">
          <mxGeometry x="-210" y="1540" width="40" height="20" as="geometry" />
        </mxCell>
        <mxCell id="0WxYUuPuHPvPGawuybOv-90" value="测试" style="text;html=1;strokeColor=none;fillColor=none;align=center;verticalAlign=middle;whiteSpace=wrap;rounded=0;fontSize=12;" parent="1" vertex="1">
          <mxGeometry x="-212.88" y="1650" width="40" height="20" as="geometry" />
        </mxCell>
        <mxCell id="0WxYUuPuHPvPGawuybOv-93" style="edgeStyle=orthogonalEdgeStyle;rounded=0;orthogonalLoop=1;jettySize=auto;html=1;exitX=1;exitY=0.5;exitDx=0;exitDy=0;fontSize=12;fontColor=#007FFF;" parent="1" source="0WxYUuPuHPvPGawuybOv-95" target="0WxYUuPuHPvPGawuybOv-96" edge="1">
          <mxGeometry relative="1" as="geometry" />
        </mxCell>
        <mxCell id="0WxYUuPuHPvPGawuybOv-94" style="edgeStyle=orthogonalEdgeStyle;rounded=0;orthogonalLoop=1;jettySize=auto;html=1;exitX=1;exitY=0.75;exitDx=0;exitDy=0;entryX=0;entryY=0.5;entryDx=0;entryDy=0;fontSize=12;fontColor=#007FFF;" parent="1" source="0WxYUuPuHPvPGawuybOv-95" target="0WxYUuPuHPvPGawuybOv-97" edge="1">
          <mxGeometry relative="1" as="geometry">
            <Array as="points">
              <mxPoint x="-386.95" y="1915" />
              <mxPoint x="-386.95" y="1990" />
            </Array>
          </mxGeometry>
        </mxCell>
        <mxCell id="0WxYUuPuHPvPGawuybOv-102" style="edgeStyle=orthogonalEdgeStyle;rounded=0;orthogonalLoop=1;jettySize=auto;html=1;exitX=1;exitY=0.25;exitDx=0;exitDy=0;entryX=0;entryY=0.5;entryDx=0;entryDy=0;fontSize=12;fontColor=#000000;" parent="1" source="0WxYUuPuHPvPGawuybOv-95" target="0WxYUuPuHPvPGawuybOv-101" edge="1">
          <mxGeometry relative="1" as="geometry" />
        </mxCell>
        <mxCell id="0WxYUuPuHPvPGawuybOv-95" value="五指山服务&lt;br&gt;（SepServer）" style="rounded=0;whiteSpace=wrap;html=1;fontSize=12;fillColor=#dae8fc;strokeColor=#6c8ebf;" parent="1" vertex="1">
          <mxGeometry x="-542.12" y="1870" width="120" height="60" as="geometry" />
        </mxCell>
        <mxCell id="0WxYUuPuHPvPGawuybOv-96" value="O加解密服务" style="rounded=0;whiteSpace=wrap;html=1;fontSize=12;fillColor=#f5f5f5;strokeColor=#666666;fontColor=#333333;" parent="1" vertex="1">
          <mxGeometry x="-350.95000000000005" y="1870" width="120" height="60" as="geometry" />
        </mxCell>
        <mxCell id="0WxYUuPuHPvPGawuybOv-97" value="&lt;span&gt;D加解密服务&lt;/span&gt;" style="rounded=0;whiteSpace=wrap;html=1;fontSize=12;fillColor=#f5f5f5;strokeColor=#666666;fontColor=#333333;" parent="1" vertex="1">
          <mxGeometry x="-350.95000000000005" y="1960" width="120" height="60" as="geometry" />
        </mxCell>
        <mxCell id="0WxYUuPuHPvPGawuybOv-101" value="Ticket服务" style="rounded=0;whiteSpace=wrap;html=1;fontSize=12;fillColor=#f5f5f5;strokeColor=#666666;fontColor=#333333;" parent="1" vertex="1">
          <mxGeometry x="-349.12000000000006" y="1780" width="120" height="60" as="geometry" />
        </mxCell>
        <mxCell id="0WxYUuPuHPvPGawuybOv-103" value="现在基本由jackyniu维护" style="text;html=1;strokeColor=none;fillColor=none;align=center;verticalAlign=middle;whiteSpace=wrap;rounded=0;fontSize=12;fontColor=#000000;" parent="1" vertex="1">
          <mxGeometry x="-547.12" y="1940" width="130" height="20" as="geometry" />
        </mxCell>
      </root>
    </mxGraphModel>
  </diagram>
</mxfile>
